<?xml version="1.0" encoding="UTF-8" standalone="no"?>
<!-- Created with Inkscape (http://www.inkscape.org/) -->

<svg
   xmlns:osb="http://www.openswatchbook.org/uri/2009/osb"
   xmlns:dc="http://purl.org/dc/elements/1.1/"
   xmlns:cc="http://creativecommons.org/ns#"
   xmlns:rdf="http://www.w3.org/1999/02/22-rdf-syntax-ns#"
   xmlns:svg="http://www.w3.org/2000/svg"
   xmlns="http://www.w3.org/2000/svg"
   xmlns:sodipodi="http://sodipodi.sourceforge.net/DTD/sodipodi-0.dtd"
   xmlns:inkscape="http://www.inkscape.org/namespaces/inkscape"
   width="64px"
   height="64px"
   id="svg3854"
   version="1.1"
   inkscape:version="0.48.3.1 r9886"
   sodipodi:docname="rescueme.svg">
  <defs
     id="defs3856">
    <linearGradient
       id="linearGradient4374"
       osb:paint="solid">
      <stop
         style="stop-color:#000000;stop-opacity:1;"
         offset="0"
         id="stop4376" />
    </linearGradient>
  </defs>
  <sodipodi:namedview
     id="base"
     pagecolor="#ffffff"
     bordercolor="#666666"
     borderopacity="1.0"
     inkscape:pageopacity="0.0"
     inkscape:pageshadow="2"
     inkscape:zoom="11.426846"
     inkscape:cx="7.4160631"
     inkscape:cy="31.003319"
     inkscape:current-layer="layer1"
     showgrid="true"
     inkscape:document-units="px"
     inkscape:grid-bbox="true"
     inkscape:window-width="1855"
     inkscape:window-height="1056"
     inkscape:window-x="65"
     inkscape:window-y="24"
     inkscape:window-maximized="1" />
  <metadata
     id="metadata3859">
    <rdf:RDF>
      <cc:Work
         rdf:about="">
        <dc:format>image/svg+xml</dc:format>
        <dc:type
           rdf:resource="http://purl.org/dc/dcmitype/StillImage" />
      </cc:Work>
    </rdf:RDF>
  </metadata>
  <g
     id="layer1"
     inkscape:label="Layer 1"
     inkscape:groupmode="layer">
    <g
       id="g4473"
       transform="matrix(-1,0,0,-1,64.777507,64.057181)">
      <rect
         transform="matrix(0.70710678,-0.70710678,0.70710678,0.70710678,0,0)"
         y="33.486168"
         x="-25.623457"
         height="24.498833"
         width="52.498833"
         id="rect3862"
         style="fill:#000000;fill-opacity:1;stroke:#000000;stroke-width:7.50116634;stroke-linecap:round;stroke-linejoin:round;stroke-miterlimit:4;stroke-opacity:1;stroke-dasharray:none" />
      <path
         transform="matrix(0,-0.49107145,0.5392157,0,43.143994,26.633931)"
         d="m 30.545455,13.727273 c 0,2.560593 -2.279278,4.636363 -5.090909,4.636363 -2.811631,0 -5.090909,-2.07577 -5.090909,-4.636363 0,-2.560593 2.279278,-4.6363635 5.090909,-4.6363635 2.811631,0 5.090909,2.0757705 5.090909,4.6363635 z"
         sodipodi:ry="4.6363635"
         sodipodi:rx="5.090909"
         sodipodi:cy="13.727273"
         sodipodi:cx="25.454546"
         id="path4372"
         style="fill:#ffffff;fill-opacity:1;fill-rule:nonzero;stroke:#000000;stroke-width:0;stroke-linecap:round;stroke-linejoin:round;stroke-miterlimit:4;stroke-opacity:1;stroke-dasharray:none"
         sodipodi:type="arc" />
      <rect
         transform="matrix(0.70710678,-0.70710678,0.70710678,0.70710678,0,0)"
         y="33.235588"
         x="-24.347406"
         height="25"
         width="45"
         id="rect4380"
         style="fill:#ffffff;fill-opacity:1;fill-rule:nonzero;stroke:#000000;stroke-width:0;stroke-linecap:round;stroke-linejoin:round;stroke-miterlimit:4;stroke-opacity:1;stroke-dasharray:none" />
    </g>
    <g
       id="g4497"
       transform="translate(-0.78761898,-0.43756605)">
      <g
         id="g4522">
        <rect
           transform="matrix(0.70710678,-0.70710678,0.70710678,0.70710678,0.78761898,0.43756605)"
           y="29.091509"
           x="-15.116614"
           height="4"
           width="30"
           id="rect4384"
           style="fill:#ffffff;fill-opacity:1;fill-rule:nonzero;stroke:#000000;stroke-width:0;stroke-linecap:round;stroke-linejoin:round;stroke-miterlimit:4;stroke-opacity:1;stroke-dasharray:none" />
        <path
           style="fill:#000000;fill-opacity:1;stroke:#000000;stroke-width:3.975;stroke-linecap:round;stroke-linejoin:round;stroke-miterlimit:4;stroke-opacity:1;stroke-dasharray:none"
           d="M 17.379717,5.4504633 C 22.644619,10.715364 27.909519,15.980264 33.17442,21.245166 29.363158,25.056428 25.551895,28.867691 21.740634,32.678952 16.475732,27.414051 11.210832,22.149151 5.9459314,16.884249 9.7571934,13.072988 13.568455,9.2617253 17.379717,5.4504633 z"
           id="rect3862-3"
           inkscape:connector-curvature="0" />
        <path
           style="fill:#000000;fill-opacity:1;fill-rule:nonzero;stroke:#000000;stroke-width:0;stroke-linecap:round;stroke-linejoin:round;stroke-miterlimit:4;stroke-opacity:1;stroke-dasharray:none"
           d="m 21.401219,34.993623 c -0.252957,-4.935501 -0.505915,-9.871001 -0.758873,-14.806502 4.935502,0.252957 9.871002,0.505915 14.806504,0.758873 0.252957,4.935501 0.505916,9.871001 0.758872,14.806502 C 31.272221,35.499539 26.33672,35.24658 21.401219,34.993623 z"
           id="rect4404"
           inkscape:connector-curvature="0" />
        <path
           style="fill:#000000;fill-opacity:1;stroke:#000000;stroke-width:0;stroke-linecap:round;stroke-linejoin:round;stroke-miterlimit:4;stroke-opacity:1;stroke-dasharray:none"
           d="m 33.370691,18.643817 c 0.729302,0.729301 1.458602,1.458602 2.187905,2.187904 -4.742603,4.742603 -9.485206,9.485206 -14.227809,14.227809 -0.729302,-0.729302 -1.458603,-1.458603 -2.187904,-2.187904 4.742602,-4.742603 9.485206,-9.485207 14.227808,-14.227809 z"
           id="rect3862-3-2"
           inkscape:connector-curvature="0" />
      </g>
    </g>
  </g>
</svg>
